<?xml version="1.0" encoding="UTF-8" standalone="no"?>
<svg
   xmlns:dc="http://purl.org/dc/elements/1.1/"
   xmlns:cc="http://creativecommons.org/ns#"
   xmlns:rdf="http://www.w3.org/1999/02/22-rdf-syntax-ns#"
   xmlns:svg="http://www.w3.org/2000/svg"
   xmlns="http://www.w3.org/2000/svg"
   xmlns:sodipodi="http://sodipodi.sourceforge.net/DTD/sodipodi-0.dtd"
   xmlns:inkscape="http://www.inkscape.org/namespaces/inkscape"
   viewBox="0 0 111.27 36.1"
   version="1.1"
   id="svg58"
   sodipodi:docname="logo_horizontal_rgb.svg"
   inkscape:version="0.92.3 (2405546, 2018-03-11)"
   width="111.27"
   height="36.099998">
  <metadata
     id="metadata62">
    <rdf:RDF>
      <cc:Work
         rdf:about="">
        <dc:format>image/svg+xml</dc:format>
        <dc:type
           rdf:resource="http://purl.org/dc/dcmitype/StillImage" />
        <dc:title>logo_rgb_1</dc:title>
      </cc:Work>
    </rdf:RDF>
  </metadata>
  <sodipodi:namedview
     pagecolor="#ffffff"
     bordercolor="#666666"
     borderopacity="1"
     objecttolerance="10"
     gridtolerance="10"
     guidetolerance="10"
     inkscape:pageopacity="0"
     inkscape:pageshadow="2"
     inkscape:window-width="1696"
     inkscape:window-height="731"
     id="namedview60"
     showgrid="false"
     inkscape:zoom="4.0619622"
     inkscape:cx="24.135"
     inkscape:cy="29.049999"
     inkscape:window-x="0"
     inkscape:window-y="0"
     inkscape:window-maximized="0"
     inkscape:current-layer="Layer_1-2" />
  <defs
     id="defs4">
    <style
       id="style2">.cls-1{fill:#182856;}.cls-2{fill:#ef3f45;}.cls-3{fill:#00afa8;}</style>
  </defs>
  <title
     id="title6">logo_rgb_1</title>
  <g
     id="Layer_2"
     data-name="Layer 2"
     transform="translate(0,-21.99989)">
    <g
       id="Layer_1-2"
       data-name="Layer 1">
      <g
         id="g911"
         transform="translate(0.34222185,-0.54638176)">
        <path
           style="fill:#ef3f45"
           inkscape:connector-curvature="0"
           id="path34"
           d="m 21.664407,27.046271 -1.64,-2.92 a 5.62,5.62 0 0 1 -4,2 5.56,5.56 0 0 1 -3.89,-2 l -1.63,3 a 8.48,8.48 0 0 0 5.55,2.23 8.46,8.46 0 0 0 5.61,-2.31 z"
           class="cls-2" />
        <path
           style="fill:#182856"
           inkscape:connector-curvature="0"
           id="path36"
           d="m 16.054407,45.846271 a 6.67,6.67 0 0 0 -5.74,3.28 11.63,11.63 0 0 0 -1.61,5.72 12.5,12.5 0 0 0 3.26,1.6 8.91,8.91 0 0 1 1,-5.61 3.47,3.47 0 0 1 3,-1.78 c 3.2,0 6,2.37 7.35,5.83 a 14.25,14.25 0 0 0 2.11,-1.81 c 0.13,-0.14 0.25,-0.29 0.37,-0.43 -1.91,-4.08 -5.56,-6.8 -9.74,-6.8 z"
           class="cls-1" />
        <path
           style="fill:#182856"
           inkscape:connector-curvature="0"
           id="path38"
           d="m 17.794407,51.296271 -0.27,-0.11 a 2.51,2.51 0 0 0 -2.47,0.39 c -1.28,1.08 -1,3.06 -0.74,5.36 a 13,13 0 0 0 1.78,0.13 13.59,13.59 0 0 0 1.44,-0.08 c 0,-0.12 0,-0.24 -0.05,-0.36 -0.07,-0.57 -0.17,-1.31 -0.21,-1.91 a 4.61,4.61 0 0 1 1.64,2.06 12.25,12.25 0 0 0 3,-1 8.28,8.28 0 0 0 -4.12,-4.48 z"
           class="cls-1" />
        <path
           style="fill:#00afa8"
           inkscape:connector-curvature="0"
           id="path40"
           d="m 16.054407,36.986271 c 5.25,0 10,2.88 13.25,7.45 0,-0.16 0,-0.33 0,-0.49 a 12,12 0 0 0 -1.18,-5.33 l -0.24,-0.43 a 18.46,18.46 0 0 0 -11.83,-4.46 18.35,18.35 0 0 0 -11.55,4.23 l -0.37,0.66 a 10,10 0 0 0 -1.35,4.85 c 0,0.33 0,0.63 0,0.95 3.32,-4.56 8.04,-7.43 13.27,-7.43 z"
           class="cls-3" />
        <path
           style="fill:#00afa8"
           inkscape:connector-curvature="0"
           id="path42"
           d="m 6.074407,52.456271 a 12.76,12.76 0 0 1 1.24,-4 9.43,9.43 0 0 1 8.58,-5.59 h 0.16 c 4.73,0 8.89,3.19 11.22,8 a 12.3,12.3 0 0 0 1.63,-3.74 c -3,-4.6 -7.64,-7.56 -12.82,-7.56 a 12.78,12.78 0 0 0 -11.69,7.39 16.41,16.41 0 0 0 -0.69,1.62 12.81,12.81 0 0 0 2.37,3.88 z"
           class="cls-3" />
        <path
           style="fill:#ef3f45"
           inkscape:connector-curvature="0"
           id="path44"
           d="m 24.904407,32.826271 -1.62,-2.89 a 9.84,9.84 0 0 1 -7.23,3.62 9.87,9.87 0 0 1 -7.16,-3.54 l -1.6,2.89 a 12.58,12.58 0 0 0 8.76,3.91 12.63,12.63 0 0 0 8.85,-3.99 z"
           class="cls-2" />
        <path
           style="fill:#ef3f45"
           inkscape:connector-curvature="0"
           id="path46"
           d="m 16.054407,41.066271 c -3.82,0 -7.37,-2 -10.29,-5.4 l -1.62,2.94 c 3.39,3.61 7.5,5.72 11.91,5.72 4.41,0 8.61,-2.16 12,-5.83 l -1.64,-2.93 c -2.91,3.46 -6.49,5.5 -10.36,5.5 z"
           class="cls-2" />
        <path
           style="fill:#182856"
           inkscape:connector-curvature="0"
           id="path48"
           d="m 9.804407,34.896271 a 11.65,11.65 0 0 0 6.25,1.92 11.63,11.63 0 0 0 6.28,-1.92 17.36,17.36 0 0 0 -12.53,0 z"
           class="cls-1" />
        <path
           style="fill:#182856"
           inkscape:connector-curvature="0"
           id="path50"
           d="m 20.244407,40.246271 a 11.21,11.21 0 0 1 -4.19,0.82 11.34,11.34 0 0 1 -4.18,-0.81 12.32,12.32 0 0 0 -3.47,1.87 15.54,15.54 0 0 0 3.56,1.61 9.22,9.22 0 0 1 3.93,-0.86 h 0.16 a 10.61,10.61 0 0 1 4.14,0.85 15.58,15.58 0 0 0 3.67,-1.69 14.43,14.43 0 0 0 -3.62,-1.79 z"
           class="cls-1" />
        <g
           transform="matrix(1.4874784,0,0,1.5748486,36.000411,-34.500483)"
           id="g884">
          <path
             style="fill:#182856"
             inkscape:connector-curvature="0"
             class="cls-1"
             d="M 1.14,46.65 A 0.68,0.68 0 0 1 0.69,46.82 0.64,0.64 0 0 1 0.24,46.65 0.64,0.64 0 0 1 0.07,46.2 v -7.65 a 0.58,0.58 0 0 1 0.18,-0.43 0.62,0.62 0 0 1 0.46,-0.18 0.58,0.58 0 0 1 0.43,0.18 0.56,0.56 0 0 1 0.19,0.43 v 7.65 a 0.58,0.58 0 0 1 -0.19,0.45 z"
             id="path8" />
          <path
             style="fill:#182856"
             inkscape:connector-curvature="0"
             class="cls-1"
             d="m 9.11,42.76 v 3.45 a 0.61,0.61 0 0 1 -1,0.44 0.64,0.64 0 0 1 -0.17,-0.44 V 42.78 A 2,2 0 0 0 7.6,41.58 1.34,1.34 0 0 0 6.48,41.14 1.9,1.9 0 0 0 5.56,41.36 1.79,1.79 0 0 0 4.91,41.96 1.56,1.56 0 0 0 4.68,42.78 v 3.43 A 0.64,0.64 0 0 1 4.51,46.65 0.62,0.62 0 0 1 4.07,46.82 0.54,0.54 0 0 1 3.64,46.65 0.6,0.6 0 0 1 3.47,46.21 V 40.79 A 0.64,0.64 0 0 1 3.64,40.35 0.61,0.61 0 0 1 4,40.18 a 0.62,0.62 0 0 1 0.44,0.17 0.64,0.64 0 0 1 0.17,0.44 v 0.44 A 2.83,2.83 0 0 1 5.53,40.37 2.44,2.44 0 0 1 6.83,40 c 1.52,0 2.28,0.94 2.28,2.76 z"
             id="path10" />
          <path
             style="fill:#182856"
             inkscape:connector-curvature="0"
             class="cls-1"
             d="m 13,41.36 v 3.78 q 0,0.63 0.57,0.63 a 0.85,0.85 0 0 0 0.24,0 1,1 0 0 1 0.24,0 0.35,0.35 0 0 1 0.28,0.14 0.52,0.52 0 0 1 0.12,0.36 0.53,0.53 0 0 1 -0.31,0.45 1.22,1.22 0 0 1 -0.68,0.19 3.07,3.07 0 0 1 -0.77,-0.09 1.05,1.05 0 0 1 -0.62,-0.45 1.8,1.8 0 0 1 -0.27,-1.09 V 41.36 H 11 a 0.57,0.57 0 0 1 -0.4,-1 0.57,0.57 0 0 1 0.4,-0.15 h 0.74 v -1.02 a 0.56,0.56 0 0 1 0.17,-0.43 0.57,0.57 0 0 1 0.44,-0.18 0.56,0.56 0 0 1 0.42,0.18 0.6,0.6 0 0 1 0.17,0.43 v 1.06 h 1 a 0.56,0.56 0 0 1 0.4,0.16 0.54,0.54 0 0 1 0.16,0.4 0.5,0.5 0 0 1 -0.16,0.39 0.56,0.56 0 0 1 -0.4,0.16 z"
             id="path12" />
          <path
             style="fill:#182856"
             inkscape:connector-curvature="0"
             class="cls-1"
             d="m 21.91,43.63 a 0.6,0.6 0 0 1 -0.42,0.16 H 17 a 2.23,2.23 0 0 0 0.7,1.49 2.16,2.16 0 0 0 1.51,0.55 2.12,2.12 0 0 0 1.66,-0.63 0.66,0.66 0 0 1 0.37,-0.11 0.49,0.49 0 0 1 0.36,0.15 0.52,0.52 0 0 1 0.14,0.35 0.64,0.64 0 0 1 -0.25,0.49 3.11,3.11 0 0 1 -1,0.62 3.16,3.16 0 0 1 -1.19,0.3 3.64,3.64 0 0 1 -1.81,-0.43 3,3 0 0 1 -1.2,-1.21 3.49,3.49 0 0 1 -0.43,-1.75 3.88,3.88 0 0 1 0.44,-1.87 3.18,3.18 0 0 1 1.15,-1.23 3,3 0 0 1 3.07,0 3.27,3.27 0 0 1 1.58,2.81 0.52,0.52 0 0 1 -0.19,0.31 z m -4.15,-2.09 a 2,2 0 0 0 -0.68,1.24 h 3.74 v -0.1 a 1.55,1.55 0 0 0 -0.6,-1.11 1.9,1.9 0 0 0 -1.22,-0.43 2,2 0 0 0 -1.24,0.4 z"
             id="path14" />
          <path
             style="fill:#182856"
             inkscape:connector-curvature="0"
             class="cls-1"
             d="m 27.87,40.2 a 0.49,0.49 0 0 1 0.24,0.42 0.6,0.6 0 0 1 -0.16,0.46 0.49,0.49 0 0 1 -0.38,0.16 1.24,1.24 0 0 1 -0.35,-0.07 1.33,1.33 0 0 0 -0.41,-0.09 1.29,1.29 0 0 0 -0.77,0.27 2,2 0 0 0 -0.61,0.75 2.3,2.3 0 0 0 -0.24,1.06 v 3.05 a 0.58,0.58 0 0 1 -0.6,0.61 0.57,0.57 0 0 1 -0.44,-0.17 0.6,0.6 0 0 1 -0.16,-0.44 v -5.42 a 0.64,0.64 0 0 1 0.17,-0.44 0.6,0.6 0 0 1 1,0.44 v 0.64 a 2.5,2.5 0 0 1 0.84,-1 2.33,2.33 0 0 1 1.3,-0.43 0.92,0.92 0 0 1 0.57,0.2 z"
             id="path16" />
          <path
             style="fill:#182856"
             inkscape:connector-curvature="0"
             class="cls-1"
             d="m 35.23,42.76 v 3.45 a 0.64,0.64 0 0 1 -0.17,0.44 0.62,0.62 0 0 1 -0.44,0.17 0.61,0.61 0 0 1 -0.43,-0.17 0.64,0.64 0 0 1 -0.17,-0.44 V 42.78 A 1.92,1.92 0 0 0 33.68,41.58 1.34,1.34 0 0 0 32.56,41.14 1.92,1.92 0 0 0 31.64,41.36 1.68,1.68 0 0 0 31,42 1.48,1.48 0 0 0 30.76,42.82 v 3.43 a 0.6,0.6 0 0 1 -0.17,0.44 0.6,0.6 0 0 1 -0.44,0.17 0.56,0.56 0 0 1 -0.43,-0.17 0.6,0.6 0 0 1 -0.16,-0.44 v -5.46 a 0.6,0.6 0 0 1 0.17,-0.44 0.57,0.57 0 0 1 0.42,-0.17 0.6,0.6 0 0 1 0.44,0.17 0.6,0.6 0 0 1 0.17,0.44 v 0.44 A 2.83,2.83 0 0 1 31.68,40.37 2.5,2.5 0 0 1 32.94,40 c 1.53,0 2.29,0.94 2.29,2.76 z"
             id="path18" />
          <path
             style="fill:#182856"
             inkscape:connector-curvature="0"
             class="cls-1"
             d="m 43,43.63 a 0.6,0.6 0 0 1 -0.42,0.16 h -4.47 a 2.19,2.19 0 0 0 0.7,1.49 2.15,2.15 0 0 0 1.5,0.55 2.48,2.48 0 0 0 1,-0.17 2.28,2.28 0 0 0 0.69,-0.46 0.68,0.68 0 0 1 0.37,-0.11 0.46,0.46 0 0 1 0.36,0.15 0.49,0.49 0 0 1 0.15,0.35 0.64,0.64 0 0 1 -0.25,0.49 3.11,3.11 0 0 1 -1,0.62 3.19,3.19 0 0 1 -1.24,0.25 3.64,3.64 0 0 1 -1.81,-0.43 3.06,3.06 0 0 1 -1.21,-1.21 3.59,3.59 0 0 1 -0.42,-1.75 3.77,3.77 0 0 1 0.44,-1.87 3.11,3.11 0 0 1 1.15,-1.23 2.94,2.94 0 0 1 3.06,0 3.2,3.2 0 0 1 1.15,1.16 3.38,3.38 0 0 1 0.44,1.65 0.52,0.52 0 0 1 -0.19,0.36 z m -4.15,-2.09 a 2,2 0 0 0 -0.68,1.24 h 3.73 v -0.1 a 1.55,1.55 0 0 0 -0.6,-1.11 1.9,1.9 0 0 0 -1.23,-0.43 2,2 0 0 0 -1.23,0.4 z"
             id="path20" />
          <path
             style="fill:#182856"
             inkscape:connector-curvature="0"
             class="cls-1"
             d="m 46.66,41.36 v 3.78 q 0,0.63 0.57,0.63 a 0.85,0.85 0 0 0 0.24,0 0.93,0.93 0 0 1 0.24,0 0.37,0.37 0 0 1 0.28,0.14 0.57,0.57 0 0 1 0.11,0.36 0.53,0.53 0 0 1 -0.3,0.45 1.26,1.26 0 0 1 -0.69,0.19 3.13,3.13 0 0 1 -0.77,-0.09 1.05,1.05 0 0 1 -0.62,-0.45 1.8,1.8 0 0 1 -0.27,-1.09 v -3.92 h -0.74 a 0.57,0.57 0 0 1 -0.39,-1 0.53,0.53 0 0 1 0.39,-0.15 h 0.74 v -1.02 a 0.6,0.6 0 0 1 0.17,-0.43 0.59,0.59 0 0 1 0.44,-0.18 0.54,0.54 0 0 1 0.42,0.18 0.57,0.57 0 0 1 0.18,0.43 v 1.06 h 1.05 a 0.55,0.55 0 0 1 0.56,0.56 0.53,0.53 0 0 1 -0.16,0.39 0.58,0.58 0 0 1 -0.4,0.16 z"
             id="path22" />
          <path
             style="fill:#182856"
             inkscape:connector-curvature="0"
             class="cls-1"
             d="m 22.49,49.23 a 0.62,0.62 0 0 1 0.2,0.47 0.6,0.6 0 0 1 0,0.22 L 20,57.59 a 0.47,0.47 0 0 1 -0.2,0.28 0.85,0.85 0 0 1 -0.34,0.11 0.62,0.62 0 0 1 -0.34,-0.11 0.54,0.54 0 0 1 -0.24,-0.29 l -2,-4.63 -2,4.63 a 0.54,0.54 0 0 1 -0.24,0.29 0.66,0.66 0 0 1 -0.36,0.11 0.74,0.74 0 0 1 -0.33,-0.12 0.54,0.54 0 0 1 -0.2,-0.27 L 11.2,49.92 a 0.6,0.6 0 0 1 0,-0.22 0.59,0.59 0 0 1 0.21,-0.46 0.68,0.68 0 0 1 0.45,-0.18 0.62,0.62 0 0 1 0.37,0.11 0.45,0.45 0 0 1 0.21,0.28 l 2.15,6.36 1.83,-4.52 a 0.63,0.63 0 0 1 0.23,-0.28 0.6,0.6 0 0 1 0.35,-0.1 0.59,0.59 0 0 1 0.34,0.1 0.63,0.63 0 0 1 0.23,0.28 l 1.78,4.52 2.14,-6.36 a 0.45,0.45 0 0 1 0.21,-0.29 0.7,0.7 0 0 1 0.38,-0.1 0.72,0.72 0 0 1 0.41,0.17 z"
             id="path24" />
          <path
             style="fill:#182856"
             inkscape:connector-curvature="0"
             class="cls-1"
             d="m 29.32,51.41 a 0.58,0.58 0 0 1 0.18,0.45 v 5.51 A 0.58,0.58 0 0 1 29.32,57.8 0.57,0.57 0 0 1 28.89,57.98 0.54,0.54 0 0 1 28.46,57.8 0.56,0.56 0 0 1 28.29,57.37 V 57 a 2.82,2.82 0 0 1 -0.9,0.75 2.5,2.5 0 0 1 -1.23,0.31 2.93,2.93 0 0 1 -1.57,-0.44 3,3 0 0 1 -1.1,-1.24 4.16,4.16 0 0 1 0,-3.56 3,3 0 0 1 1.1,-1.24 2.73,2.73 0 0 1 1.53,-0.44 2.89,2.89 0 0 1 1.25,0.27 2.69,2.69 0 0 1 0.92,0.71 v -0.3 a 0.58,0.58 0 0 1 0.17,-0.44 0.54,0.54 0 0 1 0.43,-0.18 0.6,0.6 0 0 1 0.43,0.21 z m -2,5.27 a 2,2 0 0 0 0.72,-0.84 2.88,2.88 0 0 0 0,-2.39 2.07,2.07 0 0 0 -0.72,-0.85 1.91,1.91 0 0 0 -1.06,-0.31 1.83,1.83 0 0 0 -1.06,0.31 2,2 0 0 0 -0.72,0.83 2.65,2.65 0 0 0 -0.26,1.21 2.58,2.58 0 0 0 0.26,1.2 2,2 0 0 0 0.72,0.84 2,2 0 0 0 2.12,0 z"
             id="path26" />
          <path
             style="fill:#182856"
             inkscape:connector-curvature="0"
             class="cls-1"
             d="m 33.3,52.51 v 3.78 q 0,0.63 0.57,0.63 a 0.85,0.85 0 0 0 0.24,0 1.13,1.13 0 0 1 0.24,-0.05 0.35,0.35 0 0 1 0.28,0.14 0.54,0.54 0 0 1 0.12,0.36 0.52,0.52 0 0 1 -0.31,0.45 1.23,1.23 0 0 1 -0.68,0.2 3.07,3.07 0 0 1 -0.77,-0.09 1.15,1.15 0 0 1 -0.62,-0.45 1.86,1.86 0 0 1 -0.27,-1.1 V 52.51 H 31.36 A 0.55,0.55 0 0 1 30.8,52 0.55,0.55 0 0 1 31.36,51.45 h 0.74 v -1.11 a 0.6,0.6 0 0 1 0.61,-0.61 0.56,0.56 0 0 1 0.42,0.18 0.61,0.61 0 0 1 0.17,0.43 v 1.06 h 1.05 a 0.54,0.54 0 0 1 0.4,0.16 0.55,0.55 0 0 1 -0.4,0.95 z"
             id="path28" />
          <path
             style="fill:#182856"
             inkscape:connector-curvature="0"
             class="cls-1"
             d="m 42.3,54.78 a 0.6,0.6 0 0 1 -0.42,0.16 h -4.47 a 2.17,2.17 0 0 0 2.21,2.06 2.37,2.37 0 0 0 1,-0.18 2.42,2.42 0 0 0 0.67,-0.46 0.78,0.78 0 0 1 0.37,-0.11 0.49,0.49 0 0 1 0.36,0.15 0.49,0.49 0 0 1 0.15,0.35 0.65,0.65 0 0 1 -0.26,0.49 3.06,3.06 0 0 1 -1,0.62 3.24,3.24 0 0 1 -1.25,0.25 3.67,3.67 0 0 1 -1.81,-0.43 3,3 0 0 1 -1.2,-1.2 3.63,3.63 0 0 1 -0.43,-1.75 3.9,3.9 0 0 1 0.44,-1.88 3.13,3.13 0 0 1 1.16,-1.23 2.89,2.89 0 0 1 1.54,-0.43 3,3 0 0 1 1.52,0.41 3.25,3.25 0 0 1 1.12,1.15 3.29,3.29 0 0 1 0.45,1.65 0.56,0.56 0 0 1 -0.15,0.38 z m -4.15,-2.09 a 2,2 0 0 0 -0.69,1.24 h 3.74 v -0.1 a 1.55,1.55 0 0 0 -0.6,-1.11 2,2 0 0 0 -1.22,-0.43 2,2 0 0 0 -1.23,0.4 z"
             id="path30" />
          <path
             style="fill:#182856"
             inkscape:connector-curvature="0"
             class="cls-1"
             d="m 48,51.35 a 0.49,0.49 0 0 1 0.24,0.42 0.64,0.64 0 0 1 -0.16,0.46 0.53,0.53 0 0 1 -0.39,0.16 1.19,1.19 0 0 1 -0.34,-0.07 1.44,1.44 0 0 0 -0.42,-0.09 1.31,1.31 0 0 0 -0.77,0.27 2,2 0 0 0 -0.61,0.75 2.46,2.46 0 0 0 -0.23,1.06 v 3.06 a 0.61,0.61 0 0 1 -0.17,0.43 0.59,0.59 0 0 1 -0.44,0.18 0.55,0.55 0 0 1 -0.43,-0.18 0.6,0.6 0 0 1 -0.17,-0.43 v -5.43 a 0.57,0.57 0 0 1 0.18,-0.43 0.54,0.54 0 0 1 0.42,-0.18 0.59,0.59 0 0 1 0.44,0.18 0.6,0.6 0 0 1 0.17,0.43 v 0.64 a 2.27,2.27 0 0 1 0.84,-1 2.15,2.15 0 0 1 1.26,-0.4 1,1 0 0 1 0.58,0.17 z"
             id="path32" />
          <path
             style="fill:#182856"
             inkscape:connector-curvature="0"
             class="cls-1"
             d="M 3.19,51.05 A 2.07,2.07 0 0 0 2.11,50.77 2.18,2.18 0 0 0 1,51 2,2 0 0 0 0.25,51.76 2.36,2.36 0 0 0 0.27,54 1.93,1.93 0 0 0 1.02,54.75 2.18,2.18 0 0 0 2.11,55 2.14,2.14 0 0 0 3.19,54.73 1.93,1.93 0 0 0 3.94,54 a 2.36,2.36 0 0 0 0,-2.19 1.93,1.93 0 0 0 -0.75,-0.76 z m -0.45,3 A 1.23,1.23 0 0 1 2.11,54.21 1.21,1.21 0 0 1 1.48,54 1.12,1.12 0 0 1 1.05,53.54 1.29,1.29 0 0 1 0.89,52.88 1.39,1.39 0 0 1 1.05,52.2 1.1,1.1 0 0 1 1.48,51.75 1.21,1.21 0 0 1 2.11,51.58 1.24,1.24 0 0 1 2.74,51.75 1.17,1.17 0 0 1 3.17,52.2 1.51,1.51 0 0 1 3.32,52.88 1.47,1.47 0 0 1 3.17,53.55 1.16,1.16 0 0 1 2.74,54 Z"
             id="path52" />
          <path
             style="fill:#182856"
             inkscape:connector-curvature="0"
             class="cls-1"
             d="M 7,50.17 A 0.78,0.78 0 0 1 7.6,49.93 0.44,0.44 0 0 0 7.92,49.81 0.39,0.39 0 0 0 8.06,49.51 0.41,0.41 0 0 0 7.92,49.2 0.48,0.48 0 0 0 7.6,49.09 1.77,1.77 0 0 0 6.7,49.31 1.55,1.55 0 0 0 6,50 1.93,1.93 0 0 0 5.78,50.95 v 0 H 5.59 a 0.45,0.45 0 0 0 -0.31,0.11 0.41,0.41 0 0 0 0,0.58 0.45,0.45 0 0 0 0.31,0.11 h 0.23 v 2.78 a 0.43,0.43 0 0 0 0.44,0.45 0.5,0.5 0 0 0 0.35,-0.12 0.48,0.48 0 0 0 0.12,-0.33 V 51.75 H 7.4 A 0.44,0.44 0 0 0 7.7,51.64 0.39,0.39 0 0 0 7.83,51.36 0.38,0.38 0 0 0 7.7,51.06 0.44,0.44 0 0 0 7.4,51 H 6.73 V 50.89 A 1,1 0 0 1 7,50.17 Z"
             id="path54" />
        </g>
      </g>
    </g>
  </g>
</svg>
