<svg id="Layer_1" data-name="Layer 1" xmlns="http://www.w3.org/2000/svg" viewBox="0 0 379.54 142.39"><defs><style>.cls-1{fill:#f53f45;}.cls-2{fill:#182856;}.cls-3{fill:#00afa8;}</style></defs><title>iow_logo_horizontal_rgb</title><path class="cls-1" d="M107.83,157.45l-7.08-12.65c-5.15,5.33-11,8.43-17.15,8.43s-11.87-3-17-8.24l-7,12.68c7.11,6.14,15.29,9.66,24,9.66S100.66,163.73,107.83,157.45Z" transform="translate(-26.23 -144.8)"/><path class="cls-2" d="M83.6,238.7c-10.23,0-19,5-24.81,14.11-4.36,6.88-6.7,15.71-7,24.71a54.09,54.09,0,0,0,14.06,6.92c-1-8.65.55-17.94,4.55-24.25,3.24-5.11,7.67-7.7,13.17-7.7,13.83,0,25.83,10.27,31.74,25.21a58.63,58.63,0,0,0,9.14-7.85c.57-.6,1.06-1.22,1.61-1.83C117.45,250.48,101.64,238.7,83.6,238.7Z" transform="translate(-26.23 -144.8)"/><path class="cls-2" d="M91.13,262.26,90,261.78c-5.55-1.7-9.1.34-10.71,1.7-5.51,4.65-4.48,13.23-3.2,23.19a62.46,62.46,0,0,0,7.7.53c2.12,0,4.19-.12,6.23-.32-.07-.52-.14-1.05-.2-1.58-.32-2.47-.74-5.67-.91-8.26A20.38,20.38,0,0,1,96,286a52.55,52.55,0,0,0,13-4.52C106.29,274.58,101.15,267.49,91.13,262.26Z" transform="translate(-26.23 -144.8)"/><path class="cls-3" d="M83.6,200.41c22.67,0,43.1,12.43,57.27,32.2,0-.71.1-1.41.1-2.13a51.78,51.78,0,0,0-5.11-23l-1-1.86c-14.63-12.17-32.26-19.29-51.22-19.29-18.43,0-35.59,6.74-50,18.29l-1.57,2.86a43,43,0,0,0-5.83,21c0,1.39.1,2.73.18,4.08C40.57,212.8,61,200.41,83.6,200.41Z" transform="translate(-26.23 -144.8)"/><path class="cls-3" d="M40.42,267.3a56.38,56.38,0,0,1,5.37-17.41c7.72-15.38,21.17-24.15,37.09-24.15h.72c20.44,0,38.41,13.81,48.49,34.49a54.2,54.2,0,0,0,7.07-15.9c-13-19.91-33.06-32.69-55.45-32.69-21.34-.3-40.32,11.59-50.52,31.93a73.29,73.29,0,0,0-3,7A55.87,55.87,0,0,0,40.42,267.3Z" transform="translate(-26.23 -144.8)"/><path class="cls-1" d="M121.84,182.43l-7-12.49c-9,9.86-19.72,15.62-31.24,15.62s-22-5.64-30.95-15.31l-6.94,12.53c11,10.67,24,16.87,37.89,16.87C97.67,199.65,110.78,193.32,121.84,182.43Z" transform="translate(-26.23 -144.8)"/><path class="cls-1" d="M83.6,218.05c-16.55,0-31.89-8.66-44.49-23.34l-7,12.71C46.76,223,64.5,232.14,83.6,232.14c19.29,0,37.19-9.33,52-25.21l-7.1-12.67C115.8,209.21,100.31,218.05,83.6,218.05Z" transform="translate(-26.23 -144.8)"/><path class="cls-2" d="M56.55,191.34a50,50,0,0,0,27.05,8.31,50.08,50.08,0,0,0,27.13-8.3,75.39,75.39,0,0,0-54.18,0Z" transform="translate(-26.23 -144.8)"/><path class="cls-2" d="M101.68,214.51a48,48,0,0,1-36.15,0,53.27,53.27,0,0,0-15,8,68.22,68.22,0,0,0,15.4,7,39.57,39.57,0,0,1,17-3.72h.72a45.76,45.76,0,0,1,17.86,3.67,68.92,68.92,0,0,0,15.91-7.32A63.64,63.64,0,0,0,101.68,214.51Z" transform="translate(-26.23 -144.8)"/><path class="cls-2" d="M184.19,216a2.93,2.93,0,0,1-2.08.84A2.8,2.8,0,0,1,180,216a2.86,2.86,0,0,1-.81-2.08V178a2.73,2.73,0,0,1,.84-2,2.9,2.9,0,0,1,2.15-.84,2.83,2.83,0,0,1,2.05.84,2.69,2.69,0,0,1,.87,2v36A2.71,2.71,0,0,1,184.19,216Z" transform="translate(-26.23 -144.8)"/><path class="cls-2" d="M221.69,197.78V214a2.78,2.78,0,0,1-.81,2,2.71,2.71,0,0,1-2,.84,2.66,2.66,0,0,1-2-.84,2.78,2.78,0,0,1-.81-2V197.84a8.9,8.9,0,0,0-1.61-5.6q-1.6-2.09-5.24-2.09a9.06,9.06,0,0,0-4.33,1,8,8,0,0,0-3,2.81,7,7,0,0,0-1.1,3.84V214a2.78,2.78,0,0,1-.81,2,2.95,2.95,0,0,1-4.08,0A2.85,2.85,0,0,1,195,214V188.48a2.82,2.82,0,0,1,.81-2,2.66,2.66,0,0,1,2-.83,2.74,2.74,0,0,1,2.06.83,2.82,2.82,0,0,1,.81,2v2.09a12.84,12.84,0,0,1,4.32-4A11.5,11.5,0,0,1,211,184.9Q221.69,184.9,221.69,197.78Z" transform="translate(-26.23 -144.8)"/><path class="cls-2" d="M239.87,191.16v17.78c0,2,.9,3,2.69,3a4.28,4.28,0,0,0,1.13-.21,4.34,4.34,0,0,1,1.14-.21,1.64,1.64,0,0,1,1.31.66,2.52,2.52,0,0,1,.53,1.67,2.55,2.55,0,0,1-1.43,2.15,6,6,0,0,1-3.22.89,14.6,14.6,0,0,1-3.61-.42,5.35,5.35,0,0,1-2.92-2.11,8.6,8.6,0,0,1-1.28-5.16v-18h-3.46a2.53,2.53,0,0,1-2.62-2.62,2.45,2.45,0,0,1,.74-1.85,2.6,2.6,0,0,1,1.88-.72h3.46v-5a2.82,2.82,0,0,1,.8-2,2.74,2.74,0,0,1,2.06-.84,2.66,2.66,0,0,1,2,.84,2.78,2.78,0,0,1,.8,2v5h5a2.56,2.56,0,0,1,2.62,2.63,2.44,2.44,0,0,1-.75,1.85,2.56,2.56,0,0,1-1.87.71Z" transform="translate(-26.23 -144.8)"/><path class="cls-2" d="M281.87,201.87a2.86,2.86,0,0,1-2,.74h-21a10.36,10.36,0,0,0,3.32,7,10.11,10.11,0,0,0,7.06,2.63,11,11,0,0,0,4.65-.84,11.43,11.43,0,0,0,3.16-2.14,3.38,3.38,0,0,1,1.73-.54,2.3,2.3,0,0,1,1.71.71,2.38,2.38,0,0,1,.68,1.67,3,3,0,0,1-1.19,2.27,13.89,13.89,0,0,1-4.59,2.92,15,15,0,0,1-5.85,1.2,17.32,17.32,0,0,1-8.5-2,14.11,14.11,0,0,1-5.66-5.67,16.71,16.71,0,0,1-2-8.23,18.12,18.12,0,0,1,2.05-8.79,14.92,14.92,0,0,1,5.43-5.82,14,14,0,0,1,14.41-.06,14.93,14.93,0,0,1,5.36,5.43,15.48,15.48,0,0,1,2.09,7.75A2.57,2.57,0,0,1,281.87,201.87ZM262.36,192a9.26,9.26,0,0,0-3.22,5.81h17.6v-.47a7.32,7.32,0,0,0-2.83-5.19,9,9,0,0,0-5.76-2A9.24,9.24,0,0,0,262.36,192Z" transform="translate(-26.23 -144.8)"/><path class="cls-2" d="M309.88,185.71a2.39,2.39,0,0,1,1.13,2,3,3,0,0,1-.74,2.18,2.48,2.48,0,0,1-1.82.75,5.71,5.71,0,0,1-1.62-.36,6.63,6.63,0,0,0-2-.42,6.08,6.08,0,0,0-3.61,1.28,9.41,9.41,0,0,0-2.86,3.52,11,11,0,0,0-1.11,5V214a2.78,2.78,0,0,1-.8,2,3,3,0,0,1-4.09,0,2.89,2.89,0,0,1-.77-2.06V188.48a2.81,2.81,0,0,1,.8-2,2.69,2.69,0,0,1,2-.83,2.77,2.77,0,0,1,2.06.83,2.81,2.81,0,0,1,.8,2v3a11.3,11.3,0,0,1,3.94-4.74,10.59,10.59,0,0,1,6-1.88A4.51,4.51,0,0,1,309.88,185.71Z" transform="translate(-26.23 -144.8)"/><path class="cls-2" d="M344.47,197.78V214a2.78,2.78,0,0,1-.81,2,2.71,2.71,0,0,1-2.05.84,2.64,2.64,0,0,1-2-.84,2.78,2.78,0,0,1-.81-2V197.84a8.9,8.9,0,0,0-1.61-5.6q-1.6-2.09-5.25-2.09a9,9,0,0,0-4.32,1,7.93,7.93,0,0,0-3,2.81,7,7,0,0,0-1.11,3.84V214a2.78,2.78,0,0,1-.8,2,3,3,0,0,1-4.09,0,2.89,2.89,0,0,1-.77-2.06V188.48a2.86,2.86,0,0,1,.8-2,2.69,2.69,0,0,1,2-.83,2.76,2.76,0,0,1,2.06.83,2.81,2.81,0,0,1,.8,2v2.09a13,13,0,0,1,4.33-4,11.48,11.48,0,0,1,5.93-1.64Q344.47,184.9,344.47,197.78Z" transform="translate(-26.23 -144.8)"/><path class="cls-2" d="M381,201.87a2.84,2.84,0,0,1-2,.74H358a10.35,10.35,0,0,0,3.31,7,10.14,10.14,0,0,0,7.07,2.63,11,11,0,0,0,4.65-.84,11.74,11.74,0,0,0,3.16-2.14,3.35,3.35,0,0,1,1.73-.54,2.29,2.29,0,0,1,1.7.71,2.34,2.34,0,0,1,.68,1.67,2.92,2.92,0,0,1-1.19,2.27,13.78,13.78,0,0,1-4.59,2.92,15,15,0,0,1-5.84,1.2,17.27,17.27,0,0,1-8.5-2,14.07,14.07,0,0,1-5.67-5.67,16.82,16.82,0,0,1-2-8.23,18.12,18.12,0,0,1,2.06-8.79,14.84,14.84,0,0,1,5.43-5.82,14,14,0,0,1,14.4-.06,14.88,14.88,0,0,1,5.37,5.43,15.48,15.48,0,0,1,2.09,7.75A2.54,2.54,0,0,1,381,201.87ZM361.46,192a9.21,9.21,0,0,0-3.22,5.81h17.59v-.47a7.28,7.28,0,0,0-2.83-5.19,9,9,0,0,0-5.76-2A9.23,9.23,0,0,0,361.46,192Z" transform="translate(-26.23 -144.8)"/><path class="cls-2" d="M398.2,191.16v17.78c0,2,.89,3,2.68,3a4.22,4.22,0,0,0,1.13-.21,4.34,4.34,0,0,1,1.14-.21,1.64,1.64,0,0,1,1.31.66,2.52,2.52,0,0,1,.54,1.67,2.56,2.56,0,0,1-1.44,2.15,6,6,0,0,1-3.22.89,14.6,14.6,0,0,1-3.61-.42,5.39,5.39,0,0,1-2.92-2.11,8.6,8.6,0,0,1-1.28-5.16v-18h-3.46a2.53,2.53,0,0,1-1.88-.74,2.57,2.57,0,0,1-.74-1.88,2.49,2.49,0,0,1,.74-1.85,2.6,2.6,0,0,1,1.88-.72h3.46v-5a2.82,2.82,0,0,1,.8-2,2.74,2.74,0,0,1,2.06-.84,2.66,2.66,0,0,1,2,.84,2.79,2.79,0,0,1,.81,2v5h4.95a2.56,2.56,0,0,1,2.62,2.63,2.44,2.44,0,0,1-.75,1.85,2.56,2.56,0,0,1-1.87.71Z" transform="translate(-26.23 -144.8)"/><path class="cls-2" d="M284.56,228.21a2.78,2.78,0,0,1,1,2.2,3.26,3.26,0,0,1-.19,1L273,267.51a2.11,2.11,0,0,1-1,1.28,3.54,3.54,0,0,1-1.59.51,3,3,0,0,1-1.61-.48,2.75,2.75,0,0,1-1.13-1.37l-9.3-21.77-9.25,21.77a2.7,2.7,0,0,1-1.13,1.37,2.79,2.79,0,0,1-3.22-.06,2.24,2.24,0,0,1-1-1.25l-12.34-36.08a3.23,3.23,0,0,1-.18-1,2.79,2.79,0,0,1,1-2.17,3.17,3.17,0,0,1,2.12-.87,3.08,3.08,0,0,1,1.73.51,2.33,2.33,0,0,1,1,1.34l10.08,29.88,8.64-21.23a2.91,2.91,0,0,1,1.08-1.31,2.8,2.8,0,0,1,1.61-.48,2.85,2.85,0,0,1,1.61.48,2.89,2.89,0,0,1,1.07,1.31l8.41,21.23,10-29.88a2.27,2.27,0,0,1,1-1.37,3.35,3.35,0,0,1,1.79-.48A3.08,3.08,0,0,1,284.56,228.21Z" transform="translate(-26.23 -144.8)"/><path class="cls-2" d="M316.71,238.44a2.83,2.83,0,0,1,.8,2.11v25.89a2.78,2.78,0,0,1-.8,2,3,3,0,0,1-4.09,0,2.89,2.89,0,0,1-.77-2.06v-1.55a12.94,12.94,0,0,1-4.24,3.55,11.93,11.93,0,0,1-5.78,1.46,13.55,13.55,0,0,1-7.37-2.09,14.4,14.4,0,0,1-5.19-5.82,19.71,19.71,0,0,1,0-16.76,14.52,14.52,0,0,1,5.16-5.81,13.19,13.19,0,0,1,7.22-2.09,13.43,13.43,0,0,1,5.88,1.31,12.28,12.28,0,0,1,4.32,3.34v-1.43a3,3,0,0,1,.77-2.08,2.65,2.65,0,0,1,2-.84A2.78,2.78,0,0,1,316.71,238.44Zm-9.25,24.78a9.79,9.79,0,0,0,3.41-3.94,13.62,13.62,0,0,0,0-11.27,10,10,0,0,0-3.41-4,8.75,8.75,0,0,0-5-1.46,8.89,8.89,0,0,0-5,1.43,9.67,9.67,0,0,0-3.39,3.94,13.66,13.66,0,0,0,0,11.33,9.67,9.67,0,0,0,3.39,3.94,9.39,9.39,0,0,0,10,0Z" transform="translate(-26.23 -144.8)"/><path class="cls-2" d="M335.41,243.59v17.78c0,2,.9,3,2.69,3a4.35,4.35,0,0,0,1.13-.21,4.28,4.28,0,0,1,1.13-.21,1.65,1.65,0,0,1,1.32.66,2.52,2.52,0,0,1-.9,3.82,6,6,0,0,1-3.22.89,14.54,14.54,0,0,1-3.61-.42,5.35,5.35,0,0,1-2.92-2.11,8.53,8.53,0,0,1-1.28-5.16v-18h-3.46a2.55,2.55,0,0,1-2.63-2.62,2.46,2.46,0,0,1,.75-1.85,2.58,2.58,0,0,1,1.88-.72h3.46v-5a2.8,2.8,0,0,1,.8-2,2.73,2.73,0,0,1,2.06-.84,2.67,2.67,0,0,1,2,.84,2.84,2.84,0,0,1,.8,2v5h4.95a2.58,2.58,0,0,1,1.88.75A2.54,2.54,0,0,1,343,241a2.44,2.44,0,0,1-.75,1.85,2.59,2.59,0,0,1-1.88.71Z" transform="translate(-26.23 -144.8)"/><path class="cls-2" d="M377.7,254.3a2.87,2.87,0,0,1-2,.75h-21a10.34,10.34,0,0,0,3.31,7,10.15,10.15,0,0,0,7.07,2.63,11,11,0,0,0,4.65-.84,11.58,11.58,0,0,0,3.16-2.14,3.38,3.38,0,0,1,1.73-.54,2.24,2.24,0,0,1,1.7.72,2.31,2.31,0,0,1,.69,1.66,3,3,0,0,1-1.19,2.27,13.94,13.94,0,0,1-4.6,2.92,15,15,0,0,1-5.84,1.2,17.29,17.29,0,0,1-8.5-2,14.19,14.19,0,0,1-5.67-5.67,16.82,16.82,0,0,1-2-8.23,18.12,18.12,0,0,1,2.05-8.79,14.84,14.84,0,0,1,5.43-5.82,14,14,0,0,1,14.4-.06,14.88,14.88,0,0,1,5.37,5.43,15.48,15.48,0,0,1,2.09,7.75A2.57,2.57,0,0,1,377.7,254.3Zm-19.51-9.84a9.26,9.26,0,0,0-3.22,5.82h17.59v-.48a7.25,7.25,0,0,0-2.83-5.19,9,9,0,0,0-5.75-2A9.24,9.24,0,0,0,358.19,244.46Z" transform="translate(-26.23 -144.8)"/><path class="cls-2" d="M404.64,238.14a2.39,2.39,0,0,1,1.13,2,2.93,2.93,0,0,1-.75,2.18,2.45,2.45,0,0,1-1.82.75,5.73,5.73,0,0,1-1.61-.36,6.63,6.63,0,0,0-2-.42,6,6,0,0,0-3.61,1.29,9.3,9.3,0,0,0-2.86,3.51,11,11,0,0,0-1.11,5v14.38a2.78,2.78,0,0,1-.8,2,3,3,0,0,1-4.09,0,2.89,2.89,0,0,1-.77-2.06V240.91a2.81,2.81,0,0,1,.8-2,2.69,2.69,0,0,1,2-.83,2.77,2.77,0,0,1,2.06.83,2.81,2.81,0,0,1,.8,2v3a11.3,11.3,0,0,1,3.94-4.74,10.59,10.59,0,0,1,6-1.88A4.51,4.51,0,0,1,404.64,238.14Z" transform="translate(-26.23 -144.8)"/><path class="cls-2" d="M193.83,236.72a10.12,10.12,0,0,0-5.08-1.28,10.24,10.24,0,0,0-5.12,1.28,9.06,9.06,0,0,0-3.53,3.55,11.11,11.11,0,0,0,0,10.28,9.06,9.06,0,0,0,3.53,3.55,10.94,10.94,0,0,0,10.23,0,9.1,9.1,0,0,0,3.52-3.55,11.11,11.11,0,0,0,0-10.28A9.26,9.26,0,0,0,193.83,236.72Zm-2.12,14a6.06,6.06,0,0,1-5.91,0,5.52,5.52,0,0,1-2-2.14,6.52,6.52,0,0,1-.75-3.15,6.59,6.59,0,0,1,.75-3.16,5.49,5.49,0,0,1,2-2.15,6,6,0,0,1,5.91,0,5.31,5.31,0,0,1,2,2.15,7.14,7.14,0,0,1,0,6.31A5.44,5.44,0,0,1,191.71,250.71Z" transform="translate(-26.23 -144.8)"/><path class="cls-2" d="M211.56,232.62a3.63,3.63,0,0,1,2.82-1.15,2.19,2.19,0,0,0,1.52-.55,1.94,1.94,0,0,0,0-2.86,2.23,2.23,0,0,0-1.52-.55,8.44,8.44,0,0,0-4.25,1.07,7.49,7.49,0,0,0-2.91,3,9.46,9.46,0,0,0-1,4.48v.19H205.1a2.07,2.07,0,0,0-1.44.52,1.81,1.81,0,0,0-.57,1.39,1.72,1.72,0,0,0,.57,1.32,2,2,0,0,0,1.44.52h1.09v13.06a2.09,2.09,0,0,0,.62,1.56,2.06,2.06,0,0,0,1.46.59,2.23,2.23,0,0,0,1.63-.59,2.17,2.17,0,0,0,.6-1.56V240h3.12a2.06,2.06,0,0,0,1.44-.51,1.75,1.75,0,0,0,.57-1.33,1.81,1.81,0,0,0-.57-1.39,2.07,2.07,0,0,0-1.44-.52H210.5v-.54A4.47,4.47,0,0,1,211.56,232.62Z" transform="translate(-26.23 -144.8)"/></svg>